General
Unique ID                                : 245792624781297259498426829669906257509 (0xB8E9F007B4B9F5012CB265BA33C41665)
Complete name                            : ../.././Samples/Passengers_Breakfast_4K.mkv
Format                                   : Matroska
Format version                           : Version 4 / Version 2
File size                                : 152 MiB
Duration                                 : 30 s 281 ms
Overall bit rate mode                    : Variable
Overall bit rate                         : 42.0 Mb/s
Movie name                               : Passengers
Encoded date                             : UTC 2017-10-29 06:37:12
Writing application                      : mkvmerge v16.0.0 ('Protest') 64-bit
Writing library                          : libebml v1.3.5 + libmatroska v1.4.8

Video
ID                                       : 1
Format                                   : HEVC
Format/Info                              : High Efficiency Video Coding
Format profile                           : Main 10@L5.1@High
Codec ID                                 : V_MPEGH/ISO/HEVC
Duration                                 : 30 s 281 ms
Bit rate                                 : 38.1 Mb/s
Width                                    : 3 840 pixels
Height                                   : 2 160 pixels
Display aspect ratio                     : 16:9
Frame rate mode                          : Constant
Frame rate                               : 23.976 (23976/1000) FPS
Original frame rate                      : 23.976 (24000/1001) FPS
Color space                              : YUV
Chroma subsampling                       : 4:2:0 (Type 2)
Bit depth                                : 10 bits
Bits/(Pixel*Frame)                       : 0.192
Stream size                              : 138 MiB (91%)
Title                                    : HEVC
Default                                  : Yes
Forced                                   : No
Color range                              : Limited
Color primaries                          : BT.2020
Transfer characteristics                 : PQ
Matrix coefficients                      : BT.2020 non-constant
Mastering display color primaries        : Display P3
Mastering display luminance              : min: 0.0050 cd/m2, max: 4000 cd/m2
Maximum Content Light Level              : 1529 cd/m2
Maximum Frame-Average Light Level        : 380 cd/m2

Audio
ID                                       : 2
Format                                   : TrueHD
Format profile                           : TrueHD+Atmos / TrueHD
Codec ID                                 : A_TRUEHD
Duration                                 : 30 s 280 ms
Bit rate mode                            : Variable
Bit rate                                 : 3 642 kb/s
Maximum bit rate                         : 8 229 kb/s
Channel(s)                               : Object Based / 8 channels
Channel positions                        : Object Based / Front: L C R, Side: L R, Back: L R, LFE
Sampling rate                            :  / 48.0 kHz
Frame rate                               : 1 200.000 FPS (40 SPF)
Compression mode                         : Lossless
Stream size                              : 13.1 MiB (9%)
Title                                    : Dolby Atmos
Language                                 : English
Default                                  : Yes
Forced                                   : No

Text #1
ID                                       : 3
Format                                   : PGS
Muxing mode                              : zlib
Codec ID                                 : S_HDMV/PGS
Codec ID/Info                            : Picture based subtitle format used on BDs/HD-DVDs
Duration                                 : 27 s 694 ms
Bit rate                                 : 120 kb/s
Count of elements                        : 28
Stream size                              : 405 KiB (0%)
Title                                    : SDH
Language                                 : English
Default                                  : No
Forced                                   : No

Text #2
ID                                       : 4
Format                                   : PGS
Muxing mode                              : zlib
Codec ID                                 : S_HDMV/PGS
Codec ID/Info                            : Picture based subtitle format used on BDs/HD-DVDs
Duration                                 : 26 s 276 ms
Bit rate                                 : 121 kb/s
Count of elements                        : 26
Stream size                              : 388 KiB (0%)
Language                                 : English
Default                                  : Yes
Forced                                   : No

Text #3
ID                                       : 5
Format                                   : PGS
Muxing mode                              : zlib
Codec ID                                 : S_HDMV/PGS
Codec ID/Info                            : Picture based subtitle format used on BDs/HD-DVDs
Duration                                 : 27 s 694 ms
Bit rate                                 : 120 kb/s
Count of elements                        : 28
Stream size                              : 405 KiB (0%)
Title                                    : SDH
Language                                 : English
Default                                  : No
Forced                                   : No

Text #4
ID                                       : 6
Format                                   : PGS
Muxing mode                              : zlib
Codec ID                                 : S_HDMV/PGS
Codec ID/Info                            : Picture based subtitle format used on BDs/HD-DVDs
Duration                                 : 26 s 276 ms
Bit rate                                 : 121 kb/s
Count of elements                        : 26
Stream size                              : 388 KiB (0%)
Language                                 : English
Default                                  : No
Forced                                   : No


General
Unique ID                                : 245792624781297259498426829669906257509 (0xB8E9F007B4B9F5012CB265BA33C41665)
Complete name                            : ../.././Samples/Passengers_Breakfast_4K.mkv
Format                                   : Matroska
Format version                           : Version 4 / Version 2
File size                                : 152 MiB
Duration                                 : 30 s 281 ms
Overall bit rate mode                    : Variable
Overall bit rate                         : 42.0 Mb/s
Movie name                               : Passengers
Encoded date                             : UTC 2017-10-29 06:37:12
Writing application                      : mkvmerge v16.0.0 ('Protest') 64-bit
Writing library                          : libebml v1.3.5 + libmatroska v1.4.8

Video
ID                                       : 1
Format                                   : HEVC
Format/Info                              : High Efficiency Video Coding
Format profile                           : Main 10@L5.1@High
Codec ID                                 : V_MPEGH/ISO/HEVC
Duration                                 : 30 s 281 ms
Bit rate                                 : 38.1 Mb/s
Width                                    : 3 840 pixels
Height                                   : 2 160 pixels
Display aspect ratio                     : 16:9
Frame rate mode                          : Constant
Frame rate                               : 23.976 (23976/1000) FPS
Original frame rate                      : 23.976 (24000/1001) FPS
Color space                              : YUV
Chroma subsampling                       : 4:2:0 (Type 2)
Bit depth                                : 10 bits
Bits/(Pixel*Frame)                       : 0.192
Stream size                              : 138 MiB (91%)
Title                                    : HEVC
Default                                  : Yes
Forced                                   : No
Color range                              : Limited
Color primaries                          : BT.2020
Transfer characteristics                 : PQ
Matrix coefficients                      : BT.2020 non-constant
Mastering display color primaries        : Display P3
Mastering display luminance              : min: 0.0050 cd/m2, max: 4000 cd/m2
Maximum Content Light Level              : 1529 cd/m2
Maximum Frame-Average Light Level        : 380 cd/m2

Audio
ID                                       : 2
Format                                   : TrueHD
Format profile                           : TrueHD+Atmos / TrueHD
Codec ID                                 : A_TRUEHD
Duration                                 : 30 s 280 ms
Bit rate mode                            : Variable
Bit rate                                 : 3 642 kb/s
Maximum bit rate                         : 8 229 kb/s
Channel(s)                               : Object Based / 8 channels
Channel positions                        : Object Based / Front: L C R, Side: L R, Back: L R, LFE
Sampling rate                            :  / 48.0 kHz
Frame rate                               : 1 200.000 FPS (40 SPF)
Compression mode                         : Lossless
Stream size                              : 13.1 MiB (9%)
Title                                    : Dolby Atmos
Language                                 : English
Default                                  : Yes
Forced                                   : No

Text #1
ID                                       : 3
Format                                   : PGS
Muxing mode                              : zlib
Codec ID                                 : S_HDMV/PGS
Codec ID/Info                            : Picture based subtitle format used on BDs/HD-DVDs
Duration                                 : 27 s 694 ms
Bit rate                                 : 120 kb/s
Count of elements                        : 28
Stream size                              : 405 KiB (0%)
Title                                    : SDH
Language                                 : English
Default                                  : No
Forced                                   : No

Text #2
ID                                       : 4
Format                                   : PGS
Muxing mode                              : zlib
Codec ID                                 : S_HDMV/PGS
Codec ID/Info                            : Picture based subtitle format used on BDs/HD-DVDs
Duration                                 : 26 s 276 ms
Bit rate                                 : 121 kb/s
Count of elements                        : 26
Stream size                              : 388 KiB (0%)
Language                                 : English
Default                                  : Yes
Forced                                   : No

Text #3
ID                                       : 5
Format                                   : PGS
Muxing mode                              : zlib
Codec ID                                 : S_HDMV/PGS
Codec ID/Info                            : Picture based subtitle format used on BDs/HD-DVDs
Duration                                 : 27 s 694 ms
Bit rate                                 : 120 kb/s
Count of elements                        : 28
Stream size                              : 405 KiB (0%)
Title                                    : SDH
Language                                 : English
Default                                  : No
Forced                                   : No

Text #4
ID                                       : 6
Format                                   : PGS
Muxing mode                              : zlib
Codec ID                                 : S_HDMV/PGS
Codec ID/Info                            : Picture based subtitle format used on BDs/HD-DVDs
Duration                                 : 26 s 276 ms
Bit rate                                 : 121 kb/s
Count of elements                        : 26
Stream size                              : 388 KiB (0%)
Language                                 : English
Default                                  : No
Forced                                   : No


